<svg xmlns="http://www.w3.org/2000/svg" width="52" height="52" viewBox="0 0 52 52" fill="none">
  <g clip-path="url(#clip0_43_105)">
    <path d="M51.741 40.1504C51.4895 39.8697 51.1038 39.7514 50.7382 39.8429L46.7971 40.8281H38.7738L38.2748 39.5806C37.344 37.2536 35.1231 35.75 32.6168 35.75H29.0471V33.7188H44.2814C44.6542 33.7188 45.0075 33.5054 45.1803 33.1753C45.3539 32.8452 45.3296 32.4339 45.1173 32.1261C45.1173 32.1261 41.7759 27.2819 41.7729 27.2777C41.4587 26.8222 40.8154 26.7031 40.3601 27.0176C39.899 27.3354 39.7832 27.9692 40.1011 28.4303L42.3477 31.6875H29.0471V12.4017C29.0471 12.4017 34.9076 20.9002 34.9113 20.9055C35.2253 21.3609 35.8686 21.4773 36.3239 21.1655C36.7811 20.8524 36.8968 20.2085 36.584 19.7529C36.584 19.7529 28.8741 8.5736 28.8727 8.57157L28.8672 8.56365C28.7094 8.33463 28.4534 8.17781 28.1789 8.13638C28.1777 8.13627 24.9846 8.125 24.9846 8.125V3.04688V1.01562C24.9846 0.454797 24.5299 0 23.9689 0C23.408 0 22.9533 0.454797 22.9533 1.01562V2.03125H21.7191C20.3165 2.03125 18.9461 2.52038 17.8604 3.40874L9.72166 10.0677C8.47234 11.0898 7.69224 12.5332 7.5212 14.1365L5.70567 23.6785C5.69379 23.741 5.6878 23.8046 5.6878 23.8683V29.6562C5.6878 30.1491 6.04154 30.5708 6.52691 30.6564L22.9533 33.5552V35.75H9.44551C8.92175 35.75 8.48392 36.1482 8.43445 36.6696C8.38489 37.1911 8.73995 37.6646 9.25437 37.7632C11.1525 38.1271 12.159 39.087 12.4217 40.8282H10.3796C7.76658 40.8282 6.2078 42.5693 4.95157 44.2014L0.210938 50.3652C-0.0248898 50.672 -0.0661242 51.086 0.104907 51.4332C0.275938 51.7803 0.628868 52 1.01582 52H42.9982C45.7792 52 48.3197 50.3642 49.4704 47.8325C49.4805 47.8103 51.9369 41.181 51.9369 41.181C52.0678 40.8276 51.9924 40.431 51.741 40.1504ZM32.6168 37.7812C34.2877 37.7812 35.7682 38.7837 36.3887 40.335L36.5861 40.8281H31.1566L29.9379 37.7812H32.6168ZM24.9846 10.1562H27.0158V35.75H24.9846V10.1562ZM7.71895 28.8041V23.9641C7.71895 23.9641 9.53468 14.4137 9.53773 14.3837C9.64477 13.3025 10.1669 12.3279 11.0079 11.6397L19.1467 4.98073C19.8704 4.38862 20.784 4.0625 21.7192 4.0625H22.9533V31.4926L7.71895 28.8041ZM27.75 37.7812L28.9688 40.8281H23.0315L21.8128 37.7812H27.75ZM19.6251 37.7812L20.8439 40.8281H14.4681C14.3292 39.6084 13.9307 38.588 13.2841 37.7812H19.6251ZM47.6066 47.0236C46.778 48.8139 44.973 49.9688 42.9982 49.9688H3.07825L6.56134 45.44C7.81929 43.8055 8.84731 42.8594 10.3795 42.8594H46.9221C47.005 42.8594 49.3636 42.2803 49.3636 42.2803L47.6066 47.0236Z" fill="#102C53"/>
    <path d="M20.0848 25.1017L11.5535 23.5783C11.0009 23.4805 10.4738 23.8475 10.3752 24.3996C10.2766 24.9518 10.6442 25.4793 11.1964 25.578L19.7277 27.1015C19.7881 27.1121 19.8481 27.1174 19.9074 27.1174C20.3901 27.1174 20.8182 26.7719 20.9061 26.2801C21.0046 25.7279 20.637 25.2004 20.0848 25.1017Z" fill="#102C53"/>
    <path d="M20.0848 13.9298L13.5343 12.76C12.9827 12.6619 12.4546 13.029 12.356 13.5813C12.2573 14.1335 12.625 14.661 13.1772 14.7598L19.7277 15.9296C19.7881 15.9402 19.8481 15.9455 19.9074 15.9455C20.3901 15.9455 20.8182 15.6001 20.9061 15.1082C21.0046 14.556 20.637 14.0285 20.0848 13.9298Z" fill="#102C53"/>
    <path d="M38.3906 25.0859C38.9515 25.0859 39.4062 24.6312 39.4062 24.0703C39.4062 23.5094 38.9515 23.0547 38.3906 23.0547C37.8297 23.0547 37.375 23.5094 37.375 24.0703C37.375 24.6312 37.8297 25.0859 38.3906 25.0859Z" fill="#102C53"/>
  </g>
  <defs>
    <clipPath id="clip0_43_105">
      <rect width="52" height="52" fill="white"/>
    </clipPath>
  </defs>
</svg>