<svg xmlns="http://www.w3.org/2000/svg" width="52" height="52" viewBox="0 0 52 52" fill="none">
  <g clip-path="url(#clip0_43_115)">
    <path d="M12.2391 39.479C12.2391 39.9642 12.6361 40.3612 13.1213 40.3612C13.6064 40.3612 14.0034 39.9642 14.0034 39.479C14.0034 38.094 13.3594 36.7708 12.2832 35.9416L7.95183 32.607C5.45533 30.6927 3.69984 27.8963 2.99412 24.747L1.35331 17.4692C1.31802 17.3104 1.30038 17.1781 1.30038 17.0458C1.30038 16.3665 1.66206 15.7578 2.20018 15.5197C2.51775 15.3785 2.87061 15.3785 3.18819 15.5373C3.57634 15.7226 3.86745 16.0842 3.99095 16.543L5.55237 22.1976C6.21398 24.5441 7.66954 26.529 9.65439 27.7904C9.76025 27.9139 9.86611 28.0198 9.9455 28.0904L14.0475 31.6807C14.418 31.9983 14.9738 31.963 15.2914 31.6014C15.6089 31.2308 15.5737 30.6751 15.212 30.3575L11.1099 26.7671C11.0394 26.7054 10.9953 26.6525 10.9688 26.6172C10.9423 26.5819 10.9159 26.5466 10.8894 26.5201C10.5013 25.9732 10.4836 25.2322 10.8629 24.6853C11.3305 23.9972 12.3009 23.856 12.9184 24.3589L19.1287 29.5106C20.1432 30.3487 20.7254 31.6102 20.7254 32.9687V39.2408C20.7254 39.726 21.1224 40.123 21.6076 40.123C22.0928 40.123 22.4897 39.726 22.4897 39.2408V32.9687C22.4897 31.0897 21.6782 29.3342 20.2579 28.1521L14.0475 22.9915C13.4741 22.524 12.7772 22.277 12.045 22.277C10.9953 22.277 10.0073 22.8063 9.40739 23.6972C9.1692 24.0501 9.01042 24.4383 8.9222 24.844C8.16355 23.9619 7.59897 22.9121 7.26375 21.7389L5.70233 16.0842C5.43769 15.1315 4.80254 14.3552 3.95567 13.9494C3.17055 13.5789 2.29721 13.5613 1.50327 13.9141C0.321186 14.4434 -0.446289 15.6696 -0.446289 17.0546C-0.446289 17.3104 -0.419824 17.5663 -0.358074 17.8574L1.28274 25.144C2.0855 28.6902 4.07035 31.8395 6.89324 34.0096L11.2246 37.3442C11.8686 37.8382 12.2567 38.641 12.2567 39.479H12.2391Z" fill="#102C53"/>
    <path d="M23.3543 41.8784H11.0041C10.5189 41.8784 10.1219 42.2754 10.1219 42.7606V49.8178C10.1219 50.303 10.5189 50.7 11.0041 50.7C11.4893 50.7 11.8863 50.303 11.8863 49.8178V43.6427H22.4721V49.8178C22.4721 50.303 22.8691 50.7 23.3543 50.7C23.8395 50.7 24.2364 50.303 24.2364 49.8178V42.7606C24.2364 42.2754 23.8395 41.8784 23.3543 41.8784Z" fill="#102C53"/>
    <path d="M50.5158 13.9054C49.713 13.5525 48.8397 13.5701 48.0546 13.9406C47.2077 14.3464 46.5726 15.1227 46.3079 16.0755L44.7465 21.7301C44.4201 22.9033 43.8467 23.9531 43.0969 24.8353C43.0087 24.4383 42.8499 24.0501 42.6117 23.6973C42.0118 22.8063 41.0238 22.277 39.974 22.277C39.2419 22.277 38.545 22.524 37.9627 23.0004L31.7524 28.1522C30.3321 29.3254 29.5205 31.0897 29.5205 32.9687V39.2408C29.5205 39.726 29.9175 40.123 30.4027 40.123C30.8878 40.123 31.2848 39.726 31.2848 39.2408V32.9687C31.2848 31.6102 31.867 30.3487 32.8815 29.5107L39.0831 24.3677C39.7182 23.8472 40.6798 23.9972 41.1473 24.6941C41.5178 25.241 41.509 25.9821 41.1208 26.529C41.0944 26.5643 41.0591 26.5907 41.0326 26.626C41.0062 26.6613 40.9621 26.7142 40.8827 26.776L36.7806 30.3664C36.4101 30.6839 36.3749 31.2485 36.7013 31.6102C37.0276 31.9719 37.5834 32.016 37.9451 31.6896L42.0383 28.108C42.1177 28.0375 42.2324 27.9316 42.3382 27.7993C44.3231 26.5378 45.7698 24.553 46.4314 22.2064L47.9928 16.5518C48.1163 16.0931 48.4074 15.7226 48.7956 15.5462C49.1132 15.3962 49.466 15.3874 49.7836 15.5285C50.3217 15.7667 50.6834 16.3842 50.6834 17.0635C50.6834 17.187 50.6658 17.3281 50.6305 17.4781L48.9897 24.7647C48.4604 27.1112 47.3489 29.2725 45.761 31.0192C45.4346 31.3808 45.4611 31.9366 45.8227 32.263C45.9903 32.413 46.2021 32.4924 46.4138 32.4924C46.652 32.4924 46.8901 32.3953 47.0666 32.2013C48.8485 30.2252 50.11 27.7905 50.7011 25.1528L52.3419 17.8574C52.4036 17.5751 52.4301 17.3193 52.4301 17.0635C52.4301 15.6785 51.6626 14.4435 50.4805 13.9142L50.5158 13.9054Z" fill="#102C53"/>
    <path d="M43.2381 33.2246L39.7183 35.9416C38.642 36.7797 37.998 38.1029 37.998 39.4791C37.998 39.9643 38.395 40.3612 38.8802 40.3612C39.3654 40.3612 39.7624 39.9643 39.7624 39.4791C39.7624 38.641 40.1505 37.8383 40.7945 37.3354L44.3143 34.6184C44.7024 34.3185 44.773 33.7627 44.4731 33.3834C44.1731 32.9952 43.6262 32.9247 43.2381 33.2246Z" fill="#102C53"/>
    <path d="M40.9973 41.8784H28.6472C28.162 41.8784 27.765 42.2754 27.765 42.7606V49.8178C27.765 50.303 28.162 50.7 28.6472 50.7C29.1324 50.7 29.5293 50.303 29.5293 49.8178V43.6427H40.1152V49.8178C40.1152 50.303 40.5122 50.7 40.9973 50.7C41.4825 50.7 41.8795 50.303 41.8795 49.8178V42.7606C41.8795 42.2754 41.4825 41.8784 40.9973 41.8784Z" fill="#102C53"/>
    <path d="M15.9795 16.3224C16.1559 16.4988 16.3765 16.5782 16.6058 16.5782C16.8352 16.5782 17.0557 16.49 17.2321 16.3224C17.5762 15.9783 17.5762 15.4226 17.2321 15.0785L15.3884 13.226C13.0772 10.906 13.0772 7.13033 15.3884 4.81026C16.5088 3.6811 17.9996 3.06359 19.5875 3.06359C21.1666 3.06359 22.6574 3.6811 23.7689 4.81026C24.3952 5.43659 24.8716 6.19525 25.1627 7.05094C25.2862 7.4038 25.6214 7.64198 26.0008 7.64198C26.3801 7.64198 26.7153 7.4038 26.8388 7.05094C27.1388 6.19525 27.6063 5.43659 28.2326 4.81026C30.1822 2.84306 33.2962 2.50784 35.6163 4.01632C36.0221 4.28097 36.569 4.16629 36.8336 3.7605C37.0983 3.35471 36.9836 2.80777 36.5778 2.54312C33.5608 0.584738 29.5206 1.01699 26.9888 3.57524C26.6183 3.94575 26.2919 4.35154 26.0096 4.7838C25.7273 4.35154 25.4009 3.94575 25.0304 3.57524C23.5837 2.11969 21.6517 1.31693 19.5963 1.30811C17.5409 1.30811 15.609 2.11087 14.1534 3.57524C11.1541 6.58339 11.1541 11.4705 14.1534 14.4787L15.9971 16.3312L15.9795 16.3224Z" fill="#102C53"/>
    <path d="M39.2595 5.48073C39.0389 5.04847 38.5096 4.87204 38.0686 5.1014C37.6363 5.32194 37.4687 5.86005 37.6892 6.29231C38.8801 8.60355 38.4479 11.3912 36.613 13.2349L26.0007 23.8825L19.7286 17.5839C19.3845 17.2399 18.8288 17.2399 18.4847 17.5839C18.1407 17.9279 18.1407 18.4837 18.4847 18.8277L25.3832 25.7527C25.5508 25.9203 25.7713 26.0085 26.0095 26.0085C26.2477 26.0085 26.4682 25.9114 26.6358 25.7527L37.8745 14.4787C40.2475 12.0969 40.8032 8.48005 39.2683 5.48955L39.2595 5.48073Z" fill="#102C53"/>
  </g>
  <defs>
    <clipPath id="clip0_43_115">
      <rect width="52" height="52" fill="white"/>
    </clipPath>
  </defs>
</svg>