<svg xmlns="http://www.w3.org/2000/svg" width="52" height="52" viewBox="0 0 52 52" fill="none">
  <g clip-path="url(#clip0_43_125)">
    <path d="M8.96807 33.0249C10.7707 33.0249 12.2372 31.3304 12.2372 29.2475C12.2372 27.1647 10.7707 25.4702 8.96807 25.4702C7.16544 25.4702 5.69897 27.1648 5.69897 29.2475C5.69897 31.3305 7.16554 33.0249 8.96807 33.0249ZM8.96807 26.9937C9.93068 26.9937 10.7137 28.0048 10.7137 29.2475C10.7137 30.4903 9.93058 31.5015 8.96807 31.5015C8.00546 31.5015 7.22241 30.4903 7.22241 29.2475C7.22241 28.0047 8.00556 26.9937 8.96807 26.9937Z" fill="#102C53"/>
    <path d="M43.0318 25.4702C41.2292 25.4702 39.7628 27.1648 39.7628 29.2475C39.7628 31.3304 41.2292 33.0249 43.0318 33.0249C44.8345 33.0249 46.301 31.3304 46.301 29.2475C46.301 27.1647 44.8345 25.4702 43.0318 25.4702ZM43.0318 31.5015C42.0693 31.5015 41.2862 30.4903 41.2862 29.2475C41.2862 28.0047 42.0693 26.9937 43.0318 26.9937C43.9945 26.9937 44.7776 28.0048 44.7776 29.2475C44.7776 30.4904 43.9945 31.5015 43.0318 31.5015Z" fill="#102C53"/>
    <path d="M43.1022 22.65C43.0786 22.6498 43.0554 22.6497 43.0317 22.6497C39.6334 22.6497 36.547 24.5788 35.0332 27.5592C32.6755 25.4106 29.5426 24.0989 26.1091 24.0989C22.6016 24.0989 19.4083 25.4682 17.0342 27.6997C15.5468 24.6489 12.4069 22.6515 8.96817 22.6515C4.02309 22.6515 0 26.6746 0 31.6197C0 36.5647 4.02309 40.5878 8.96807 40.5878C10.393 40.5878 11.784 40.2517 13.0394 39.6112C14.1114 45.8554 19.5637 50.6221 26.109 50.6221C32.62 50.6221 38.0502 45.9054 39.1622 39.7094C40.3431 40.2741 41.6407 40.5753 42.9615 40.5858C42.9857 40.586 43.0098 40.5861 43.0339 40.5861C45.4024 40.5861 47.6334 39.6725 49.3233 38.009C51.0305 36.3284 51.981 34.0838 51.9998 31.6883C52.0385 26.7433 48.0471 22.6888 43.1022 22.65ZM1.52344 31.6197C1.52344 27.5147 4.86312 24.175 8.96807 24.175C12.0207 24.175 14.7898 26.0708 15.9008 28.9045C14.3392 30.7865 13.2869 33.1055 12.9578 35.6482C11.8922 34.652 10.4755 34.075 8.96807 34.075C6.85435 34.075 4.90527 35.2399 3.87928 37.0463C2.4309 35.6871 1.52344 33.7579 1.52344 31.6197ZM5.10605 37.982C5.83294 36.5406 7.33373 35.5985 8.96817 35.5985C10.5672 35.5985 12.0289 36.4762 12.7831 37.889C12.8 37.9207 12.8195 37.9502 12.84 37.9784C11.6759 38.6887 10.3413 39.0644 8.96817 39.0644C7.55503 39.0643 6.23269 38.6685 5.10605 37.982ZM19.7158 47.2C20.8211 44.6877 23.3471 43.0223 26.109 43.0223C28.8745 43.0223 31.3965 44.6866 32.5019 47.2001C30.6613 48.4 28.4653 49.0986 26.109 49.0986C23.7525 49.0986 21.5565 48.4 19.7158 47.2ZM33.747 46.2662C32.3318 43.3851 29.3585 41.4989 26.1091 41.4989C22.8639 41.4989 19.8864 43.3865 18.4711 46.2662C15.9627 44.1117 14.371 40.9187 14.371 37.3605C14.371 30.888 19.6367 25.6224 26.1091 25.6224C32.5816 25.6224 37.8472 30.8881 37.8472 37.3605C37.8471 40.9186 36.2554 44.1117 33.747 46.2662ZM42.9735 39.0623C41.6984 39.0522 40.4501 38.7159 39.3503 38.0892C39.3593 37.9228 39.3648 37.7557 39.3677 37.5878C39.3677 37.5878 40.7138 35.5985 43.0318 35.5985C44.6689 35.5985 46.1681 36.5405 46.8947 37.9833C45.7245 38.6967 44.3769 39.0745 42.9735 39.0623ZM48.2546 36.9232C48.2112 36.9659 48.166 37.0061 48.1218 37.0477C47.0964 35.2397 45.149 34.075 43.0318 34.075C41.6248 34.075 40.2833 34.5844 39.2364 35.4786C38.8718 32.9234 37.7767 30.6006 36.1692 28.7296C37.325 25.9841 40.0315 24.1732 43.0317 24.1732C43.0511 24.1732 43.0708 24.1732 43.0902 24.1734C47.1952 24.2056 50.5086 27.5713 50.4764 31.6762C50.4607 33.6647 49.6717 35.5281 48.2546 36.9232Z" fill="#102C53"/>
    <path d="M26.109 28.3923C23.583 28.3923 21.528 30.7946 21.528 33.7474C21.528 36.7002 23.583 39.1025 26.109 39.1025C28.635 39.1025 30.69 36.7002 30.69 33.7474C30.69 30.7947 28.635 28.3923 26.109 28.3923ZM26.109 37.5791C24.4231 37.5791 23.0515 35.8602 23.0515 33.7474C23.0515 31.6346 24.4231 29.9158 26.109 29.9158C27.7949 29.9158 29.1665 31.6346 29.1665 33.7474C29.1665 35.8602 27.7949 37.5791 26.109 37.5791Z" fill="#102C53"/>
    <path d="M7.18039 9.86987L6.91795 11.4002C6.83995 11.8549 7.02337 12.3057 7.39651 12.5769C7.60746 12.7301 7.85415 12.808 8.10247 12.808C8.29372 12.808 8.48587 12.7618 8.6634 12.6684L10.0377 11.9459L11.4121 12.6684C11.8203 12.8831 12.3058 12.848 12.6791 12.5769C13.0523 12.3058 13.2357 11.8549 13.1577 11.4002L12.8953 9.86987L14.0072 8.7861C14.3376 8.46414 14.4542 7.99157 14.3116 7.55282C14.1691 7.11418 13.797 6.80045 13.3405 6.73403L11.8039 6.51069L11.1167 5.11837C10.9126 4.70471 10.4991 4.44775 10.0378 4.44775C9.57655 4.44775 9.16319 4.70481 8.95905 5.11837L8.27188 6.51069L6.73524 6.73403C6.27882 6.80035 5.90669 7.11407 5.7641 7.55282C5.62161 7.99147 5.7382 8.46404 6.06858 8.7861L7.18039 9.86987ZM8.65751 7.99421C9.04954 7.93734 9.38826 7.69125 9.56345 7.33609L10.0378 6.3748L10.5122 7.33599C10.6875 7.69115 11.0262 7.93724 11.4181 7.99411L12.4789 8.14828L11.7111 8.8966C11.4276 9.17305 11.2983 9.57107 11.3653 9.96138L11.5465 11.0178L10.5977 10.5191C10.2471 10.3347 9.82853 10.3347 9.47804 10.519L8.52914 11.0178L8.71033 9.96158C8.77736 9.57128 8.64817 9.17315 8.3644 8.8965L7.59679 8.14828L8.65751 7.99421Z" fill="#102C53"/>
    <path d="M25.0256 7.55293C24.8831 7.11428 24.511 6.80055 24.0545 6.73413L22.5179 6.51079L21.8308 5.11847C21.6266 4.70481 21.2133 4.44775 20.752 4.44775C20.2907 4.44775 19.8773 4.70471 19.6732 5.11837L18.986 6.51069L17.4495 6.73403C16.9929 6.80035 16.6208 7.11407 16.4783 7.55282C16.3357 7.99157 16.4524 8.46414 16.7827 8.7861L17.8945 9.86987L17.6321 11.4002C17.5541 11.8549 17.7375 12.3057 18.1106 12.5769C18.3216 12.7301 18.5683 12.808 18.8166 12.808C19.0078 12.808 19.2 12.7618 19.3775 12.6684L20.7519 11.9459L22.1262 12.6684C22.5345 12.8831 23.02 12.848 23.3932 12.5769C23.7663 12.3057 23.9498 11.8549 23.8718 11.4002L23.6092 9.86987L24.7211 8.7861C25.0516 8.46425 25.1682 7.99168 25.0256 7.55293ZM22.4252 8.8968C22.1417 9.17325 22.0125 9.57128 22.0794 9.96158L22.2606 11.018L21.3118 10.5193C21.1365 10.427 20.9441 10.381 20.7519 10.381C20.5596 10.381 20.3672 10.4271 20.1921 10.5193L19.2432 11.0181L19.4243 9.96158C19.4913 9.57128 19.362 9.17325 19.0783 8.8967L18.3107 8.14849L19.3714 7.99432C19.7635 7.93744 20.1021 7.69136 20.2774 7.33619L20.7518 6.3749L21.2262 7.33629C21.4016 7.69146 21.7402 7.93744 22.132 7.99432L23.1928 8.14849L22.4252 8.8968Z" fill="#102C53"/>
    <path d="M35.7397 7.55282C35.5972 7.11407 35.2251 6.80035 34.7686 6.73403L33.232 6.51069L32.5449 5.11837C32.3407 4.70481 31.9273 4.44775 31.4661 4.44775C31.0049 4.44775 30.5915 4.70471 30.3873 5.11837L29.7001 6.51069L28.1635 6.73403C27.707 6.80035 27.3349 7.11407 27.1923 7.55282C27.0498 7.99147 27.1664 8.46404 27.4968 8.7861L28.6087 9.86987L28.3462 11.4002C28.2682 11.8549 28.4516 12.3057 28.8247 12.5769C29.0357 12.7301 29.2823 12.808 29.5307 12.808C29.7218 12.8079 29.9141 12.7618 30.0916 12.6684L31.466 11.9459L32.8403 12.6684C33.2486 12.8831 33.7341 12.848 34.1073 12.5769C34.4804 12.3058 34.6639 11.8549 34.5859 11.4002L34.3233 9.86987L35.4352 8.7861C35.7656 8.46404 35.8823 7.99147 35.7397 7.55282ZM33.1395 8.8965C32.8559 9.17295 32.7266 9.57097 32.7935 9.96138L32.9747 11.0178L32.0259 10.519C31.8506 10.4268 31.6583 10.3807 31.4661 10.3807C31.2738 10.3807 31.0815 10.4268 30.9063 10.519L29.9575 11.0178L30.1387 9.96128C30.2056 9.57087 30.0762 9.17285 29.7926 8.89639L29.025 8.14818L30.0858 7.99401C30.4779 7.93703 30.8165 7.69105 30.9917 7.33599L31.4661 6.3747L31.9405 7.33589C32.1158 7.69105 32.4544 7.93714 32.8463 7.99401L33.9071 8.14818L33.1395 8.8965Z" fill="#102C53"/>
    <path d="M39.5389 12.5769C39.7499 12.7301 39.9964 12.808 40.2449 12.808C40.436 12.8079 40.6283 12.7618 40.8058 12.6684L42.1801 11.9459L43.5545 12.6684C43.9628 12.8831 44.4482 12.848 44.8215 12.5769C45.1947 12.3058 45.3781 11.8549 45.3001 11.4002L45.0377 9.86987L46.1497 8.786C46.48 8.46394 46.5966 7.99137 46.454 7.55272C46.3115 7.11407 45.9394 6.80035 45.4829 6.73403L43.9463 6.51069L43.2591 5.11837C43.055 4.70471 42.6415 4.44775 42.1802 4.44775C41.7189 4.44775 41.3056 4.70481 41.1014 5.11837L40.4143 6.51069L38.8776 6.73403C38.4212 6.80035 38.0491 7.11407 37.9065 7.55282C37.764 7.99147 37.8806 8.46404 38.211 8.7861L39.3228 9.86987L39.0603 11.4002C38.9823 11.8549 39.1658 12.3057 39.5389 12.5769ZM40.7999 7.99411C41.1919 7.93724 41.5307 7.69115 41.7058 7.33599L42.1802 6.3747L42.6546 7.33589C42.8299 7.69105 43.1686 7.93714 43.5605 7.99401L44.6214 8.14818L43.8538 8.89639C43.5702 9.17285 43.4408 9.57087 43.5078 9.96128L43.689 11.0177L42.7402 10.519C42.5649 10.4267 42.3726 10.3807 42.1803 10.3807C41.9881 10.3807 41.7957 10.4268 41.6205 10.519L40.6717 11.0178L40.8528 9.96158C40.92 9.57118 40.7906 9.17295 40.5069 8.8965L39.7393 8.14828L40.7999 7.99411Z" fill="#102C53"/>
    <path d="M7.61768 2.90175H49.0885C49.4422 2.90175 49.7301 3.18948 49.7301 3.54322V14.6092C49.7301 14.9629 49.4423 15.2506 49.0886 15.2506H43.687C43.2663 15.2506 42.9253 15.5917 42.9253 16.0124C42.9253 16.433 43.2663 16.7741 43.687 16.7741H49.0886C50.2824 16.7741 51.2535 15.8029 51.2535 14.6092V3.54332C51.2535 2.34956 50.2824 1.37842 49.0885 1.37842H7.61768C7.197 1.37842 6.85596 1.71946 6.85596 2.14014C6.85596 2.56081 7.197 2.90175 7.61768 2.90175Z" fill="#102C53"/>
    <path d="M3.12945 16.7742H21.6354C21.7788 16.7742 21.9123 16.8514 21.984 16.9755L24.7219 21.7176C25.0114 22.219 25.5299 22.5183 26.1089 22.5183C26.6879 22.5183 27.2064 22.219 27.4959 21.7176L30.2338 16.9755C30.3055 16.8513 30.4392 16.7742 30.5825 16.7742H40.6399C41.0606 16.7742 41.4016 16.4331 41.4016 16.0125C41.4016 15.5918 41.0606 15.2507 40.6399 15.2507H30.5825C29.8966 15.2507 29.2575 15.6197 28.9145 16.2138L26.1766 20.9559C26.1699 20.9676 26.1541 20.995 26.1089 20.995C26.0638 20.995 26.0479 20.9677 26.0412 20.956L23.3033 16.2139C22.9603 15.6198 22.3212 15.2508 21.6354 15.2508H3.12945C2.7757 15.2508 2.48798 14.9631 2.48798 14.6094V3.54332C2.48798 3.18958 2.7757 2.90186 3.12945 2.90186H4.57072C4.99139 2.90186 5.33244 2.56081 5.33244 2.14014C5.33244 1.71946 4.99139 1.37842 4.57072 1.37842H3.12945C1.93568 1.37842 0.964539 2.34956 0.964539 3.54332V14.6093C0.964539 15.8029 1.93578 16.7742 3.12945 16.7742Z" fill="#102C53"/>
  </g>
  <defs>
    <clipPath id="clip0_43_125">
      <rect width="52" height="52" fill="white"/>
    </clipPath>
  </defs>
</svg>